<mxfile host="app.diagrams.net" modified="2024-06-13T14:47:34.419Z" agent="Mozilla/5.0 (Windows NT 10.0; Win64; x64) AppleWebKit/537.36 (KHTML, like Gecko) Chrome/123.0.0.0 Safari/537.36 OPR/109.0.0.0" version="24.5.4" etag="dSjdE3FxFPvE0LwQXd2h" type="github">
  <diagram name="Страница — 1" id="vpls8zeIVyqUqHrIaDQ2">
    <mxGraphModel>
      <root>
        <mxCell id="0" />
        <mxCell id="1" parent="0" />
      </root>
    </mxGraphModel>
  </diagram>
</mxfile>
